<svg width="349" height="349" viewBox="0 0 349 349" fill="none" xmlns="http://www.w3.org/2000/svg">
<path d="M66.1802 196.892V257.384C66.1802 268.076 64.8809 279.734 66.839 290.261C62.8773 285.399 59.6798 277.006 54.3104 273.729C49.8209 270.99 44.4207 274.525 45.2494 279.74C45.8294 283.391 49.1158 286.513 50.9672 289.603C54.521 295.535 58.2857 302.29 60.9092 308.672C59.0176 308.67 56.8273 308.917 55.0384 308.184C52.6401 307.2 51.1542 304.628 49.5178 302.754C46.7118 299.541 43.5202 296.681 40.5987 293.575C38.4836 291.326 36.2852 288.561 33.2342 287.561C29.4431 286.318 24.4029 290.119 24.8936 294.206C25.2124 296.86 27.5331 298.977 29.2932 300.781C31.8012 303.352 34.4567 305.733 36.5311 308.672C32.8688 308.672 28.143 307.897 24.6816 309.259C20.1385 311.047 19.889 316.6 23.4417 319.564C26.3433 321.985 31.0388 321.165 34.5545 321.165H62.227H169.623H177.5L181 322.5C181 319.688 184.343 323.318 186.5 321.165C188.5 323.5 189.59 321.165 192.024 321.165H217.061H296.125H316.55C319.67 321.165 323.597 321.656 326.361 319.89C330.202 317.437 329.72 311.411 325.762 309.347C322.046 307.409 315.396 308.672 311.279 308.672C312.947 306.308 315.036 304.498 316.982 302.375C321.155 297.823 317.903 290.092 311.28 292.331C303.732 294.883 301.092 304.282 294.617 307.996C292.487 309.217 289.268 308.672 286.901 308.672C291.223 301.745 296.181 295.139 300.648 288.288C302.192 285.921 304.543 283.732 305.521 281.055C308.508 272.884 298.118 271.57 293.795 276.482C290.75 279.942 288.438 283.93 284.924 286.973V195.577C289.365 198.838 292.593 205.966 298.76 206.042C303.683 206.103 306.33 202.107 309.362 198.865C314.097 193.8 319.346 189.25 324.103 184.209C326.477 181.693 329.56 179.017 328.799 175.194C327.827 170.313 321.847 166.657 318.527 163.357C310.93 155.81 303.139 148.481 295.466 141.012C292.312 137.941 287.615 135.157 285.602 131.139C283.273 126.493 284.924 117.859 284.924 112.729V71.3044C284.924 65.5688 286.333 57.568 283.835 52.2486C282.365 49.1161 278.951 47.9569 275.7 47.6946C267.459 47.0298 258.931 47.6334 250.663 47.6334C246.641 47.6334 242.798 47.3697 240.216 51.0591C238.074 54.1206 238.804 58.5648 238.804 62.099V85.77C231.52 80.6505 225.321 73.6294 219.038 67.3592C211.013 59.3505 202.677 51.6897 194.66 43.6883C191.196 40.2314 187.749 36.7591 184.305 33.282C181.97 30.9228 179.071 28.169 175.552 28.0076C170.633 27.7818 167.162 32.6617 164.072 35.8C156.175 43.8204 147.943 51.5155 139.973 59.4689C110.979 88.404 80.6779 116.014 51.6851 144.947C44.9516 151.667 38.4505 158.818 31.2602 165.052C28.1505 167.748 22.6899 171.461 22.1438 175.851C21.6504 179.817 24.7702 182.511 27.3075 185.056C32.2703 190.035 37.4861 194.708 42.3318 199.799C45.0553 202.66 48.1138 205.956 52.3439 206.057C58.3349 206.198 61.8198 200.034 66.1802 196.892Z" fill="#192B3A"/>
<path d="M174.384 43C169.388 49.9721 162.199 55.8696 155.923 61.6794C149.694 67.4463 143.78 73.5616 137.581 79.3621C129.438 86.9798 121.964 95.3142 113.921 103.039C100.268 116.151 86.5375 129.247 73.1746 142.667C65.5096 150.366 57.8903 158.113 50.175 165.759C46.4194 169.482 41.2589 172.786 39 177.65C42.3941 180.337 45.1654 183.822 48.3124 186.804C49.6059 188.03 51.5133 190.112 53.4585 190.064C56.0781 190 58.8318 186.21 60.576 184.53C66.7898 178.55 73.003 172.542 79.0894 166.429C102.084 143.335 125.598 120.743 148.75 97.794C154.513 92.0826 160.259 86.4299 165.899 80.5971C168.384 78.0275 171.3 74.2798 175.041 73.6514C178.909 73.0019 181.825 76.8797 184.242 79.3027C190.807 85.8854 197.308 92.5572 204.007 98.9993C227.28 121.379 250.706 143.692 273.622 166.432C279.546 172.311 285.489 178.222 291.505 184.004C293.219 185.652 296.022 189.408 298.595 189.395C300.446 189.386 301.998 187.405 303.196 186.227C305.743 183.723 314.134 178.343 311.492 174.35C309.26 170.976 305.401 168.564 302.539 165.759C294.984 158.358 287.257 151.151 279.536 143.928C256.796 122.653 234.481 100.717 212.502 78.6427C204.053 70.1577 195.395 61.923 186.861 53.5351C183.206 49.9424 179.44 44.4253 174.384 43ZM251.934 60.1613V86.5633C251.934 90.2081 250.973 95.4878 252.321 98.9135C253.3 101.4 256.091 103.437 257.963 105.243C262.189 109.318 266.298 115.079 271.65 117.586V75.3424C271.65 71.8244 271.713 68.2997 271.647 64.7823C271.622 63.4741 271.739 61.7494 270.597 60.8398C269.226 59.7494 266.701 60.162 265.078 60.1613H251.934ZM79.7466 309H169.783L169.126 278.638C155.205 278.638 140.951 277.742 127.065 278.697C120.991 279.114 112.448 281.159 107.49 276.431C103.939 273.044 104.72 267.918 104.72 263.457V233.094V196.792C104.72 191.589 103.512 184.591 105.182 179.63C107.579 172.514 116.69 166.949 121.808 161.809C133.88 149.685 145.691 137.396 157.951 125.48C162.757 120.809 167.292 112.839 173.727 110.297C177.993 108.611 182.255 113.624 184.899 116.266C192.848 124.208 200.519 132.408 208.561 140.258C216.789 148.289 225.089 156.253 233.279 164.32C237.675 168.65 243.324 173.356 246.118 178.97C247.638 182.022 247.333 185.563 247.333 188.871V204.712V250.256C247.333 257.09 248.6 265.369 247.075 272.037C245.268 279.93 237.073 278.638 230.903 278.638H196.072C192.979 278.638 185.845 277.311 183.324 279.316C181.471 280.79 182.27 285.139 182.27 287.218V309H271.65V218.573V193.491C271.65 190.14 272.504 185.344 270.974 182.27C268.146 176.589 260.985 171.552 256.534 167.089C243.932 154.453 230.356 142.772 217.759 130.127C207.759 120.087 197.828 110.006 187.502 100.309C184.786 97.759 180.205 90.2754 176.357 89.8114C174.567 89.5955 173.275 91.2397 172.192 92.4041C169.881 94.8878 167.552 97.3597 165.157 99.7643C154.643 110.323 143.514 120.258 132.98 130.787C121.466 142.297 110.044 153.863 98.1739 164.994C93.9521 168.955 89.74 172.875 85.6621 176.99C83.8278 178.84 81.4297 180.798 80.3105 183.21C78.839 186.382 79.7466 191.382 79.7466 194.811V219.893V309ZM117.864 266.097H234.847V208.672V192.171C234.847 189.699 235.293 186.653 234.362 184.31C233.473 182.076 231.207 180.472 229.53 178.855C226.655 176.082 223.865 173.22 221.045 170.39C213.268 162.581 205.167 155.102 197.386 147.288C192.878 142.761 187.787 136.6 182.27 133.427C182.619 136.219 183.246 138.846 181.237 141.199C177.75 145.283 171.338 143.883 169.775 138.707C169.187 136.759 170.013 134.668 170.441 132.767C165.999 134.847 162.892 139.234 159.271 142.479C149.44 151.288 140.326 161.032 131.008 170.39C127.112 174.303 119.648 179.408 118.15 184.911C117.427 187.565 117.864 190.762 117.864 193.491V210.653V266.097Z" fill="#F9F9FA"/>
<path d="M169.277 245.316C169.279 247.982 169.062 250.834 170.486 253.209C172.801 257.071 178.215 258.78 181.079 254.457C182.781 251.887 182.287 248.251 182.287 245.316C198.774 242.816 208.828 221.266 196.537 208.492C189.402 201.076 179.913 202.468 171.229 198.834C166.796 196.978 163.901 193.034 165.071 188.063C165.547 186.042 166.634 184.322 168.047 182.834C173.048 177.568 179.646 178.35 184.769 183.107C186.752 184.949 187.929 187.867 190.288 189.262C193.949 191.426 199.016 189.559 200.125 185.43C201.852 179.009 193.414 172.442 188.792 169.647C187.023 168.577 184.653 167.753 183.33 166.09C180.113 162.047 184.038 154.062 175.782 154C167.537 153.939 172.23 163.128 168.42 166.635C167.059 167.888 165.004 168.217 163.423 169.12C160.144 170.991 157.121 173.705 155.035 176.876C149.005 186.041 149.969 198.76 158.28 206.273C161.963 209.603 167.144 211.404 171.879 212.486C177.743 213.826 191.259 214.732 189.124 224.257C187.555 231.258 176.7 235.133 170.578 232.036C166.554 230.001 164.301 225.454 160.446 223.15C157.472 221.372 152.903 222.145 151.546 225.586C148.077 234.387 161.978 244.315 169.277 245.316Z" fill="#192B3A"/>
</svg>
